# xmcd
#
# Track frame offsets: 
#        150
#        17102
#        40360
#        53420
#        71520
#        99110
#        122020
#        135402
#        155140
#        170692
#
# Disc length: 2471 seconds
#
# Revision: 0
# Processed by: cddbd v1.4PL0 Copyright (c) Steve Scherf et al.
# Submitted via: ExactAudioCopy v0.90b4
#
DISCID=7d09a50a
DTITLE=Kenny Brown - Goin' Back To Mississippi
DYEAR=1996
DGENRE=Blues
TTITLE0=From Now On
TTITLE1=Frankie and Albert
TTITLE2=Goin' Back To Mississippi
TTITLE3=Wretched Mind
TTITLE4=Jumper On the Line
TTITLE5=Talk About Me
TTITLE6=Grease Monkey
TTITLE7=I'm A Lover
TTITLE8=Hold Me Baby
TTITLE9=In The Mood
EXTD=
EXTT0=
EXTT1=
EXTT2=
EXTT3=
EXTT4=
EXTT5=
EXTT6=
EXTT7=
EXTT8=
EXTT9=
PLAYORDER=
